# Blender v2.79 (sub 0) OBJ File: 'phone_v2.blend'
# www.blender.org
mtllib body.mtl
o body_Cube
v -4.545544 -6.441602 -0.557537
v -4.545544 -6.441602 0.442463
v -4.545544 7.558398 -0.557536
v -4.545544 7.558398 0.442464
v 2.454456 -6.441602 -0.557537
v 2.454456 -6.441602 0.442463
v 2.454456 7.558398 -0.557536
v 2.454456 7.558398 0.442464
v -4.445544 -6.341602 0.442463
v -4.445544 7.458398 0.442464
v 2.354456 7.458398 0.442464
v 2.354456 -6.341602 0.442463
v -4.445544 7.458398 -0.457536
v 2.354456 7.458398 -0.457536
v -4.045544 -6.441602 0.442463
v -4.045544 -6.441602 -0.557537
v -3.045544 -6.441602 0.442463
v -3.045544 -6.441602 -0.557537
v -4.045544 -6.341602 0.442463
v -3.045544 -6.341602 0.442463
v -3.045544 -6.341602 -0.457537
v -4.045544 -6.341602 -0.457537
v -4.545544 -6.441602 -0.457537
v -4.045544 -6.441602 -0.457537
v -3.045544 -6.441602 -0.457537
v 2.454456 -6.441602 -0.457537
v -4.445544 -6.341602 0.042463
v -4.445544 -2.341602 0.042463
v -4.445544 -2.341602 -0.457537
v 2.354456 -5.741602 -0.457537
v -1.045544 -2.341602 -0.457537
v -1.045544 -5.741602 -0.457537
v 2.354456 -6.341602 0.042463
v -1.045544 -2.341602 0.042463
v 2.354456 -5.741602 0.042463
v -1.045544 -5.741602 0.042463
v -4.445544 1.658398 -0.457537
v 2.354456 1.658398 -0.457537
v 2.354456 -2.341602 -0.457537
v -1.045544 1.058398 -0.457537
v -4.445544 1.058398 -0.457537
v -4.445544 1.058398 0.042463
v -4.445544 1.658398 0.042463
v 2.354456 1.658398 0.042463
v 2.354456 -2.341602 0.042463
v -1.045544 1.058398 0.042463
v -3.045544 -6.441602 0.042463
v -3.045544 -6.341602 0.042463
v -4.045544 -6.341602 0.042463
v -4.045544 -6.441602 0.042463
v -4.545544 1.658398 0.442463
v -4.445544 1.658398 0.442463
v 2.454456 1.658398 0.442463
v 2.354456 1.658398 0.442463
v 2.454456 -2.341602 0.442463
v 2.354456 -2.341602 0.442463
v 2.454456 -5.741602 0.442463
v 2.354456 -5.741602 0.442463
vn -1.0000 0.0000 0.0000
vn 0.0000 1.0000 0.0000
vn 1.0000 -0.0000 0.0000
vn 0.0000 -1.0000 0.0000
vn 0.0000 0.0000 -1.0000
vn -0.0000 -0.0000 1.0000
usemtl Material.005
s off
f 51//1 4//1 3//1
f 4//2 7//2 3//2
f 26//3 5//3 57//3
f 26//4 18//4 5//4
f 7//5 5//5 18//5
f 51//6 10//6 4//6
f 15//6 9//6 2//6
f 4//6 11//6 8//6
f 57//6 12//6 6//6
f 10//4 14//4 11//4
f 6//4 17//4 47//4
f 24//4 1//4 16//4
f 24//4 18//4 25//4
f 50//3 19//3 15//3
f 17//6 12//6 20//6
f 50//4 15//4 2//4
f 25//6 22//6 24//6
f 48//1 17//1 20//1
f 48//1 25//1 47//1
f 48//4 22//4 21//4
f 50//3 22//3 49//3
f 51//6 9//6 52//6
f 27//3 52//3 9//3
f 19//2 27//2 9//2
f 52//3 13//3 10//3
f 12//2 48//2 20//2
f 53//6 11//6 54//6
f 55//6 54//6 56//6
f 57//6 56//6 58//6
f 58//1 33//1 12//1
f 30//1 56//1 39//1
f 14//1 54//1 11//1
f 13//6 38//6 14//6
f 3//1 1//1 51//1
f 1//1 23//1 51//1
f 23//1 2//1 51//1
f 4//2 8//2 7//2
f 5//3 7//3 53//3
f 7//3 8//3 53//3
f 53//3 55//3 5//3
f 55//3 57//3 5//3
f 6//3 26//3 57//3
f 26//4 25//4 18//4
f 1//5 3//5 16//5
f 3//5 7//5 18//5
f 16//5 3//5 18//5
f 51//6 52//6 10//6
f 15//6 19//6 9//6
f 4//6 10//6 11//6
f 57//6 58//6 12//6
f 10//4 13//4 14//4
f 47//4 25//4 26//4
f 26//4 6//4 47//4
f 24//4 23//4 1//4
f 24//4 16//4 18//4
f 50//3 49//3 19//3
f 17//6 6//6 12//6
f 2//4 23//4 50//4
f 23//4 24//4 50//4
f 25//6 21//6 22//6
f 48//1 47//1 17//1
f 48//1 21//1 25//1
f 48//4 49//4 22//4
f 50//3 24//3 22//3
f 51//6 2//6 9//6
f 27//3 43//3 52//3
f 19//2 49//2 27//2
f 52//3 37//3 13//3
f 12//2 33//2 48//2
f 53//6 8//6 11//6
f 55//6 53//6 54//6
f 57//6 55//6 56//6
f 58//1 35//1 33//1
f 30//1 58//1 56//1
f 14//1 38//1 54//1
f 13//6 37//6 38//6
usemtl Material
f 36//6 28//6 27//6
f 29//2 34//2 31//2
f 43//2 38//2 37//2
f 31//1 46//1 40//1
f 40//4 42//4 41//4
f 44//6 46//6 45//6
f 31//3 36//3 32//3
f 32//2 35//2 30//2
f 39//4 34//4 31//4
f 31//6 41//6 29//6
f 29//3 42//3 28//3
f 56//1 44//1 45//1
f 32//6 39//6 31//6
f 36//6 34//6 28//6
f 27//6 33//6 36//6
f 33//6 35//6 36//6
f 29//2 28//2 34//2
f 43//2 44//2 38//2
f 31//1 34//1 46//1
f 40//4 46//4 42//4
f 44//6 43//6 46//6
f 43//6 42//6 46//6
f 46//6 34//6 45//6
f 31//3 34//3 36//3
f 32//2 36//2 35//2
f 39//4 45//4 34//4
f 31//6 40//6 41//6
f 29//3 41//3 42//3
f 56//1 54//1 44//1
f 32//6 30//6 39//6
