# Blender v2.79 (sub 0) OBJ File: 'phone_v4.blend'
# www.blender.org
mtllib body.mtl
o body_Cube
v 3.599999 0.000000 -6.999996
v 3.599998 0.000000 6.999997
v -3.599999 0.000000 6.999995
v -3.599997 0.000000 -6.999999
v 3.600001 1.400000 -6.999993
v 3.599996 1.200000 7.000001
v -3.599999 1.200000 6.999994
v -3.599998 1.400000 -6.999997
v 3.199998 1.200000 6.600003
v -3.200001 1.200000 6.599998
v 3.199998 0.300000 6.600003
v -3.200001 0.300000 6.599998
v -3.599998 1.400000 -4.400000
v -3.199999 0.300000 -4.400000
v -3.599997 0.000000 -4.400000
v -3.200000 0.300000 -3.000000
v -3.200000 1.200000 -3.000000
v -3.599998 1.200000 -3.000000
v -3.599997 0.000000 -3.000000
v -3.599998 0.300000 -3.000000
v -3.599997 0.300000 -4.400000
v 3.200001 0.300000 -4.400000
v 3.200001 0.300000 -3.000000
v 3.200001 1.200000 -3.000000
v 3.600000 1.400000 -4.400000
v 3.599999 1.200000 -3.000000
v 3.599998 0.000000 -3.000000
v 3.599999 0.000000 -4.400000
v 3.599998 0.300000 -3.000000
v 3.599999 0.300000 -4.400000
v -3.599998 0.000000 1.200000
v -3.599999 1.200000 1.200000
v -3.200000 1.200000 1.200000
v -3.200000 0.300000 1.200000
v -3.599999 1.200000 2.600000
v -3.599998 0.000000 2.600000
v -3.200000 1.200000 2.600000
v -3.200000 0.300000 2.600000
v -3.599998 0.300000 1.200000
v -3.599998 0.300000 2.600000
v 3.599998 1.200000 1.200000
v 3.599998 0.000000 1.200000
v 3.200000 1.200000 1.200000
v 3.200000 0.300000 1.200000
v 3.599997 1.200000 2.600000
v 3.599998 0.000000 2.600000
v 3.199999 1.200000 2.600000
v 3.199999 0.300000 2.600000
v 3.599998 0.300000 2.600000
v 3.599998 0.300000 1.200000
v -3.200001 0.300000 5.600000
v 3.199998 0.300000 5.600000
v -2.800000 0.600000 5.600000
v -2.800000 0.600000 6.599998
v 2.800000 0.600000 5.600000
v -2.800000 0.300000 6.599998
v -2.800000 0.300000 5.600000
v 2.800000 0.600000 6.600002
v 2.800000 0.300000 6.600002
v 2.800000 0.300000 5.600000
v 2.787735 0.300000 6.600002
v -3.200001 0.600000 6.599998
v 3.199998 0.600000 6.600003
v 2.800000 1.200000 6.600002
v -2.800000 1.200000 6.599998
v 3.799999 -0.000000 -6.999996
v 3.800001 1.400000 -6.999993
v 3.800001 1.400000 -4.400000
v 3.799999 -0.000000 -4.400000
v 3.800000 0.300000 -4.400000
v -3.799999 -0.000000 -4.400000
v -3.799999 -0.000000 -6.999999
v -3.800000 1.400000 -6.999997
v -3.800001 1.400000 -4.400000
v -3.800000 0.300000 -4.400000
vn 0.0000 -1.0000 0.0000
vn -1.0000 0.0000 0.0000
vn 0.0000 0.0000 -1.0000
vn -0.0000 -0.0000 1.0000
vn 0.0000 1.0000 -0.0000
vn 1.0000 0.0000 0.0000
usemtl Material
s off
f 1//1 28//1 27//1 42//1 46//1 2//1 3//1 36//1 31//1 19//1 15//1 4//1
f 57//2 56//2 54//2 53//2
f 1//3 5//3 67//3 66//3
f 2//4 6//4 7//4 3//4
f 3//2 7//2 35//2 40//2 36//2
f 5//3 1//3 4//3 8//3
f 11//3 59//3 58//3 63//3
f 6//5 45//5 47//5 9//5
f 9//2 47//2 48//2 52//2 11//2 63//2
f 21//5 20//5 16//5 14//5
f 15//4 21//4 75//4 71//4
f 16//6 17//6 33//6 34//6
f 17//5 18//5 32//5 33//5
f 19//2 20//2 21//2 15//2
f 20//3 18//3 17//3 16//3
f 5//5 8//5 13//5 25//5
f 27//6 29//6 26//6 41//6 50//6 42//6
f 28//6 30//6 29//6 27//6
f 22//5 23//5 29//5 30//5
f 23//3 24//3 26//3 29//3
f 21//4 30//4 25//4 13//4
f 22//5 14//5 16//5 34//5 38//5 51//5 57//5 60//5 52//5 48//5 44//5 23//5
f 31//2 39//2 32//2 18//2 20//2 19//2
f 36//2 40//2 39//2 31//2
f 37//5 35//5 7//5 10//5
f 38//6 37//6 10//6 62//6 12//6 51//6
f 39//4 34//4 33//4 32//4
f 38//5 34//5 39//5 40//5
f 40//3 35//3 37//3 38//3
f 42//6 50//6 49//6 46//6
f 43//5 41//5 26//5 24//5
f 44//2 43//2 24//2 23//2
f 46//6 49//6 45//6 6//6 2//6
f 49//5 50//5 44//5 48//5
f 41//4 43//4 44//4 50//4
f 48//3 47//3 45//3 49//3
f 56//5 57//5 51//5 12//5
f 52//5 60//5 61//5 11//5
f 7//5 6//5 9//5 64//5 65//5 10//5
f 59//6 60//6 55//6 58//6
f 60//3 57//3 53//3 55//3
f 62//3 54//3 56//3 12//3
f 62//3 10//3 65//3 54//3
f 53//5 54//5 58//5 55//5
f 9//3 63//3 58//3 64//3
f 54//3 65//3 64//3 58//3
f 66//6 67//6 68//6 70//6 69//6
f 28//1 1//1 66//1 69//1
f 5//5 25//5 68//5 67//5
f 25//4 30//4 70//4 68//4
f 30//4 28//4 69//4 70//4
f 71//2 75//2 74//2 73//2 72//2
f 21//4 13//4 74//4 75//4
f 13//5 8//5 73//5 74//5
f 8//3 4//3 72//3 73//3
f 4//1 15//1 71//1 72//1
