# Blender v2.79 (sub 0) OBJ File: 'screen.blend'
# www.blender.org
mtllib screen.mtl
o Cube.001_Cube.002
v -1.512684 2.073755 -0.200000
v -1.512684 2.073755 -0.300000
v -1.512684 -3.726245 -0.300000
v -1.512684 -3.726245 -0.200000
v 2.287316 -3.726245 -0.300000
v 2.287316 -3.726245 -0.200000
v 2.287316 2.073755 -0.300000
v 2.287316 2.073755 -0.200000
vn -1.0000 0.0000 0.0000
vn 0.0000 -1.0000 0.0000
vn 1.0000 0.0000 0.0000
vn 0.0000 1.0000 0.0000
vn 0.0000 0.0000 1.0000
vn 0.0000 0.0000 -1.0000
usemtl Material.001
s 1
f 1//1 2//1 3//1 4//1
f 4//2 3//2 5//2 6//2
f 6//3 5//3 7//3 8//3
f 8//4 7//4 2//4 1//4
f 4//5 6//5 8//5 1//5
f 5//6 3//6 2//6 7//6
