# Blender v2.79 (sub 0) OBJ File: 'phone_v2.blend'
# www.blender.org
mtllib battery.mtl
o battery_Cube.003
v -3.400000 0.800000 6.900000
v -3.400000 1.000000 6.900000
v -3.400000 0.800000 -1.100000
v -3.400000 1.000000 -1.100000
v 3.400000 0.800000 6.900000
v 3.400000 1.000000 6.900000
v 3.400000 0.800000 -1.100000
v 3.400000 1.000000 -1.100000
vn -1.0000 0.0000 0.0000
vn 0.0000 0.0000 -1.0000
vn 1.0000 0.0000 0.0000
vn 0.0000 0.0000 1.0000
vn 0.0000 -1.0000 0.0000
vn 0.0000 1.0000 0.0000
usemtl Material.002
s off
f 2//1 3//1 1//1
f 4//2 7//2 3//2
f 8//3 5//3 7//3
f 6//4 1//4 5//4
f 7//5 1//5 3//5
f 4//6 6//6 8//6
f 2//1 4//1 3//1
f 4//2 8//2 7//2
f 8//3 6//3 5//3
f 6//4 2//4 1//4
f 7//5 5//5 1//5
f 4//6 2//6 6//6
