<?xml version="1.0" encoding="utf-8"?>
<!-- Generator: Adobe Illustrator 22.1.0, SVG Export Plug-In . SVG Version: 6.00 Build 0)  -->
<svg version="1.1" xmlns="http://www.w3.org/2000/svg" xmlns:xlink="http://www.w3.org/1999/xlink" x="0px" y="0px"
	 viewBox="0 0 150 150" style="enable-background:new 0 0 150 150;" xml:space="preserve">
<g id="VuMark-UserData">
</g>
<g id="VuMark-Background">
</g>
<g id="VuMark-ClearSpace">
	<rect style="fill:#FFFFFF;" width="150" height="150"/>
</g>
<g id="VuMark-Border">
	<rect x="5" y="5.442" width="140" height="140"/>
</g>
<g id="VuMark-Origin">
	
		<circle id="VuMark_Origin_Locator" style="fill:none;stroke:#EC008C;stroke-width:0.75;stroke-miterlimit:10;" cx="75" cy="75.442" r="10"/>
</g>
<g id="VuMark-Contour">
	<rect id="contour" x="5" y="5.442" style="fill:none;stroke:#EC008C;stroke-miterlimit:10;" width="140" height="140"/>
</g>
<g id="VuMark-DarkElements">
	<rect id="d0001" x="15" y="114.442" width="20" height="20"/>
	<rect id="d0010" x="115" y="94.442" width="20" height="20"/>
	<rect id="d0009" x="95" y="94.442" width="20" height="20"/>
	<rect id="d0007" x="75" y="94.442" width="20" height="20"/>
	<rect id="d0004" x="55" y="94.442" width="20" height="20"/>
	<rect id="d0003" x="35" y="94.442" width="20" height="20"/>
	<rect id="d0002" x="15" y="94.442" width="20" height="20"/>
	<rect id="d0011" x="115" y="74.442" width="20" height="20"/>
	<rect id="d0008" x="95" y="74.442" width="20" height="20"/>
	<rect id="d0006" x="75" y="74.442" width="20" height="20"/>
	<rect id="d0005" x="55" y="74.442" width="20" height="20"/>
	<rect id="d0015" x="35" y="74.442" width="20" height="20"/>
	<rect id="d0000" x="15" y="74.442" width="20" height="20"/>
	<rect id="d0028" x="115" y="54.442" width="20" height="20"/>
	<rect id="d0023" x="95" y="54.442" width="20" height="20"/>
	<rect id="d0021" x="75" y="54.442" width="20" height="20"/>
	<rect id="d0020" x="55" y="54.442" width="20" height="20"/>
	<rect id="d0013" x="35" y="54.442" width="20" height="20"/>
	<rect id="d0012" x="15" y="54.442" width="20" height="20"/>
	<rect id="d0029" x="115" y="34.442" width="20" height="20"/>
	<rect id="d0022" x="95" y="34.442" width="20" height="20"/>
	<rect id="d0026" x="75" y="34.442" width="20" height="20"/>
	<rect id="d0024" x="55" y="34.442" width="20" height="20"/>
	<rect id="d0014" x="35" y="34.442" width="20" height="20"/>
	<rect id="d0017" x="15" y="34.442" width="20" height="20"/>
	<rect id="d0030" x="115" y="14.442" width="20" height="20"/>
	<rect id="d0027" x="95" y="14.442" width="20" height="20"/>
	<rect id="d0025" x="75" y="14.442" width="20" height="20"/>
	<rect id="d0019" x="55" y="14.442" width="20" height="20"/>
	<rect id="d0018" x="35" y="14.442" width="20" height="20"/>
	<rect id="d0016" x="15" y="14.442" width="20" height="20"/>
</g>
<g id="VuMark-BrightElements">
	<rect id="b0001" x="15" y="114.442" style="fill:#FFFFFF;" width="20" height="20"/>
	<rect id="b0010" x="115" y="94.442" style="fill:#FFFFFF;" width="20" height="20"/>
	<rect id="b0009" x="95" y="94.442" style="fill:#FFFFFF;" width="20" height="20"/>
	<rect id="b0007" x="75" y="94.442" style="fill:#FFFFFF;" width="20" height="20"/>
	<rect id="b0004" x="55" y="94.442" style="fill:#FFFFFF;" width="20" height="20"/>
	<rect id="b0003" x="35" y="94.442" style="fill:#FFFFFF;" width="20" height="20"/>
	<rect id="b0002" x="15" y="94.442" style="fill:#FFFFFF;" width="20" height="20"/>
	<rect id="b0011" x="115" y="74.442" style="fill:#FFFFFF;" width="20" height="20"/>
	<rect id="b0008" x="95" y="74.442" style="fill:#FFFFFF;" width="20" height="20"/>
	<rect id="b0006" x="75" y="74.442" style="fill:#FFFFFF;" width="20" height="20"/>
	<rect id="b0005" x="55" y="74.442" style="fill:#FFFFFF;" width="20" height="20"/>
	<rect id="b0015" x="35" y="74.442" style="fill:#FFFFFF;" width="20" height="20"/>
	<rect id="b0000" x="15" y="74.442" style="fill:#FFFFFF;" width="20" height="20"/>
	<rect id="b0028" x="115" y="54.442" style="fill:#FFFFFF;" width="20" height="20"/>
	<rect id="b0023" x="95" y="54.442" style="fill:#FFFFFF;" width="20" height="20"/>
	<rect id="b0021" x="75" y="54.442" style="fill:#FFFFFF;" width="20" height="20"/>
	<rect id="b0020" x="55" y="54.442" style="fill:#FFFFFF;" width="20" height="20"/>
	<rect id="b0013" x="35" y="54.442" style="fill:#FFFFFF;" width="20" height="20"/>
	<rect id="b0012" x="15" y="54.442" style="fill:#FFFFFF;" width="20" height="20"/>
	<rect id="b0029" x="115" y="34.442" style="fill:#FFFFFF;" width="20" height="20"/>
	<rect id="b0022" x="95" y="34.442" style="fill:#FFFFFF;" width="20" height="20"/>
	<rect id="b0026" x="75" y="34.442" style="fill:#FFFFFF;" width="20" height="20"/>
	<rect id="b0024" x="55" y="34.442" style="fill:#FFFFFF;" width="20" height="20"/>
	<rect id="b0014" x="35" y="34.442" style="fill:#FFFFFF;" width="20" height="20"/>
	<rect id="b0017" x="15" y="34.442" style="fill:#FFFFFF;" width="20" height="20"/>
	<rect id="b0030" x="115" y="14.442" style="fill:#FFFFFF;" width="20" height="20"/>
	<rect id="b0027" x="95" y="14.442" style="fill:#FFFFFF;" width="20" height="20"/>
	<rect id="b0025" x="75" y="14.442" style="fill:#FFFFFF;" width="20" height="20"/>
	<rect id="b0019" x="55" y="14.442" style="fill:#FFFFFF;" width="20" height="20"/>
	<rect id="b0018" x="35" y="14.442" style="fill:#FFFFFF;" width="20" height="20"/>
	<rect id="b0016" x="15" y="14.442" style="fill:#FFFFFF;" width="20" height="20"/>
</g>
<g id="VuMark-AsymmetryMarker">
</g>
<g id="VuMark-Feedback">
	<circle id="c0001" style="fill:none;stroke:#EC008C;stroke-width:0.75;stroke-miterlimit:10;" cx="25" cy="124.442" r="2.25"/>
	<circle id="c0007" style="fill:none;stroke:#EC008C;stroke-width:0.75;stroke-miterlimit:10;" cx="85" cy="104.442" r="2.25"/>
	<circle id="c0009" style="fill:none;stroke:#EC008C;stroke-width:0.75;stroke-miterlimit:10;" cx="105" cy="104.442" r="2.25"/>
	<circle id="c0002" style="fill:none;stroke:#EC008C;stroke-width:0.75;stroke-miterlimit:10;" cx="25" cy="104.442" r="2.25"/>
	<circle id="c0004" style="fill:none;stroke:#EC008C;stroke-width:0.75;stroke-miterlimit:10;" cx="65" cy="104.442" r="2.25"/>
	<circle id="c0010" style="fill:none;stroke:#EC008C;stroke-width:0.75;stroke-miterlimit:10;" cx="125" cy="104.442" r="2.25"/>
	<circle id="c0003" style="fill:none;stroke:#EC008C;stroke-width:0.75;stroke-miterlimit:10;" cx="45" cy="104.442" r="2.25"/>
	<circle id="c0008" style="fill:none;stroke:#EC008C;stroke-width:0.75;stroke-miterlimit:10;" cx="105" cy="84.442" r="2.25"/>
	<circle id="c0011" style="fill:none;stroke:#EC008C;stroke-width:0.75;stroke-miterlimit:10;" cx="125" cy="84.442" r="2.25"/>
	<circle id="c0005" style="fill:none;stroke:#EC008C;stroke-width:0.75;stroke-miterlimit:10;" cx="65" cy="84.442" r="2.25"/>
	<circle id="c0006" style="fill:none;stroke:#EC008C;stroke-width:0.75;stroke-miterlimit:10;" cx="85" cy="84.442" r="2.25"/>
	<circle id="c0000" style="fill:none;stroke:#EC008C;stroke-width:0.75;stroke-miterlimit:10;" cx="25" cy="84.442" r="2.25"/>
	<circle id="c0015" style="fill:none;stroke:#EC008C;stroke-width:0.75;stroke-miterlimit:10;" cx="45" cy="84.442" r="2.25"/>
	<circle id="c0013" style="fill:none;stroke:#EC008C;stroke-width:0.75;stroke-miterlimit:10;" cx="45" cy="64.442" r="2.25"/>
	<circle id="c0023" style="fill:none;stroke:#EC008C;stroke-width:0.75;stroke-miterlimit:10;" cx="105" cy="64.442" r="2.25"/>
	<circle id="c0021" style="fill:none;stroke:#EC008C;stroke-width:0.75;stroke-miterlimit:10;" cx="85" cy="64.442" r="2.25"/>
	<circle id="c0028" style="fill:none;stroke:#EC008C;stroke-width:0.75;stroke-miterlimit:10;" cx="125" cy="64.442" r="2.25"/>
	<circle id="c0020" style="fill:none;stroke:#EC008C;stroke-width:0.75;stroke-miterlimit:10;" cx="65" cy="64.442" r="2.25"/>
	<circle id="c0012" style="fill:none;stroke:#EC008C;stroke-width:0.75;stroke-miterlimit:10;" cx="25" cy="64.442" r="2.25"/>
	<circle id="c0022" style="fill:none;stroke:#EC008C;stroke-width:0.75;stroke-miterlimit:10;" cx="105" cy="44.442" r="2.25"/>
	<circle id="c0017" style="fill:none;stroke:#EC008C;stroke-width:0.75;stroke-miterlimit:10;" cx="25" cy="44.442" r="2.25"/>
	<circle id="c0026" style="fill:none;stroke:#EC008C;stroke-width:0.75;stroke-miterlimit:10;" cx="85" cy="44.442" r="2.25"/>
	<circle id="c0029" style="fill:none;stroke:#EC008C;stroke-width:0.75;stroke-miterlimit:10;" cx="125" cy="44.442" r="2.25"/>
	<circle id="c0014" style="fill:none;stroke:#EC008C;stroke-width:0.75;stroke-miterlimit:10;" cx="45" cy="44.442" r="2.25"/>
	<circle id="c0024" style="fill:none;stroke:#EC008C;stroke-width:0.75;stroke-miterlimit:10;" cx="65" cy="44.442" r="2.25"/>
	<circle id="c0027" style="fill:none;stroke:#EC008C;stroke-width:0.75;stroke-miterlimit:10;" cx="105" cy="24.442" r="2.25"/>
	<circle id="c0018" style="fill:none;stroke:#EC008C;stroke-width:0.75;stroke-miterlimit:10;" cx="45" cy="24.442" r="2.25"/>
	<circle id="c0030" style="fill:none;stroke:#EC008C;stroke-width:0.75;stroke-miterlimit:10;" cx="125" cy="24.442" r="2.25"/>
	<circle id="c0019" style="fill:none;stroke:#EC008C;stroke-width:0.75;stroke-miterlimit:10;" cx="65" cy="24.442" r="2.25"/>
	<circle id="c0016" style="fill:none;stroke:#EC008C;stroke-width:0.75;stroke-miterlimit:10;" cx="25" cy="24.442" r="2.25"/>
	<circle id="c0025" style="fill:none;stroke:#EC008C;stroke-width:0.75;stroke-miterlimit:10;" cx="85" cy="24.442" r="2.25"/>
	<rect x="5" y="5.442" style="fill:none;stroke:#EC008C;stroke-miterlimit:10;" width="140" height="140"/>
	<path id="MinimumContourClearSpace" style="opacity:0.5;fill-rule:evenodd;clip-rule:evenodd;fill:#EC008C;" d="M0.5,149.942v-149
		h149v149H0.5z M9.5,140.942v-131h131v131H9.5z"/>
</g>
<g id="VuMark-Description">
	<g id="VuMark:huihonghai">
		<path d="M-553.313-255.514l-2.65-8.084h1.139l1.259,3.982c0.336,1.091,0.636,2.074,0.864,3.022h0.024
			c0.228-0.936,0.552-1.955,0.923-3.011l1.367-3.994h1.116l-2.891,8.084H-553.313z"/>
		<path d="M-543.787-257.109c0,0.611,0.012,1.139,0.048,1.595h-0.936l-0.06-0.947h-0.024c-0.264,0.468-0.887,1.079-1.919,1.079
			c-0.911,0-2.003-0.516-2.003-2.543v-3.394h1.056v3.202c0,1.104,0.348,1.859,1.295,1.859c0.708,0,1.199-0.492,1.391-0.972
			c0.06-0.145,0.096-0.336,0.096-0.54v-3.55h1.056V-257.109z"/>
		<path d="M-535.185-259.064c-0.06-1.128-0.132-2.495-0.132-3.49h-0.024c-0.288,0.936-0.612,1.955-1.02,3.07l-1.427,3.922h-0.792
			l-1.319-3.85c-0.384-1.151-0.695-2.184-0.923-3.143h-0.024c-0.024,1.008-0.084,2.351-0.156,3.574l-0.216,3.466h-0.995l0.563-8.084
			h1.332l1.379,3.91c0.336,0.995,0.6,1.883,0.815,2.723h0.024c0.216-0.815,0.503-1.703,0.863-2.723l1.439-3.91h1.331l0.504,8.084
			h-1.032L-535.185-259.064z"/>
		<path d="M-528.235-256.906c0,0.504,0.024,0.996,0.084,1.392h-0.947l-0.084-0.731h-0.036c-0.324,0.456-0.947,0.863-1.775,0.863
			c-1.175,0-1.775-0.827-1.775-1.667c0-1.403,1.247-2.171,3.49-2.159v-0.119c0-0.468-0.132-1.344-1.319-1.332
			c-0.551,0-1.115,0.156-1.523,0.432l-0.24-0.707c0.479-0.3,1.188-0.504,1.919-0.504c1.775,0,2.207,1.211,2.207,2.362V-256.906z
			 M-529.254-258.476c-1.151-0.024-2.459,0.18-2.459,1.307c0,0.696,0.456,1.008,0.983,1.008c0.768,0,1.259-0.479,1.427-0.972
			c0.036-0.12,0.048-0.24,0.048-0.336V-258.476z"/>
		<path d="M-526.529-259.508c0-0.684-0.012-1.271-0.048-1.811h0.923l0.048,1.151h0.036c0.264-0.779,0.912-1.271,1.619-1.271
			c0.108,0,0.192,0.012,0.288,0.024v0.995c-0.108-0.024-0.216-0.024-0.36-0.024c-0.744,0-1.271,0.552-1.416,1.344
			c-0.024,0.144-0.036,0.324-0.036,0.491v3.095h-1.056V-259.508z"/>
		<path d="M-521.513-258.657h0.024c0.144-0.203,0.336-0.455,0.504-0.659l1.715-2.003h1.259l-2.23,2.387l2.554,3.418h-1.295
			l-1.991-2.782l-0.54,0.6v2.183h-1.043v-8.516h1.043V-258.657z"/>
		<path d="M-517.049-260.36c0-0.443,0.3-0.755,0.708-0.755c0.432,0,0.708,0.312,0.708,0.755c0,0.42-0.276,0.744-0.72,0.744
			C-516.761-259.616-517.049-259.94-517.049-260.36z M-517.049-256.125c0-0.444,0.3-0.756,0.708-0.756
			c0.432,0,0.708,0.312,0.708,0.756c0,0.42-0.276,0.743-0.72,0.743C-516.761-255.382-517.049-255.706-517.049-256.125z"/>
		<path d="M-506.693-264.03h1.056v3.635h0.024c0.168-0.301,0.432-0.576,0.755-0.756c0.312-0.18,0.684-0.288,1.08-0.288
			c0.779,0,2.027,0.479,2.027,2.471v3.454h-1.056v-3.334c0-0.936-0.348-1.715-1.343-1.715c-0.684,0-1.211,0.479-1.415,1.043
			c-0.06,0.156-0.072,0.312-0.072,0.504v3.502h-1.056V-264.03z"/>
		<path d="M-495.176-257.109c0,0.611,0.012,1.139,0.048,1.595h-0.936l-0.06-0.947h-0.024c-0.264,0.468-0.887,1.079-1.919,1.079
			c-0.911,0-2.003-0.516-2.003-2.543v-3.394h1.056v3.202c0,1.104,0.348,1.859,1.295,1.859c0.708,0,1.199-0.492,1.391-0.972
			c0.06-0.145,0.096-0.336,0.096-0.54v-3.55h1.056V-257.109z"/>
		<path d="M-492.246-262.95c0,0.359-0.252,0.647-0.671,0.647c-0.384,0-0.636-0.288-0.636-0.647c0-0.36,0.264-0.66,0.66-0.66
			C-492.51-263.61-492.246-263.322-492.246-262.95z M-493.421-255.514v-5.805h1.056v5.805H-493.421z"/>
		<path d="M-490.614-264.03h1.056v3.635h0.024c0.168-0.301,0.432-0.576,0.755-0.756c0.312-0.18,0.684-0.288,1.08-0.288
			c0.779,0,2.027,0.479,2.027,2.471v3.454h-1.056v-3.334c0-0.936-0.348-1.715-1.343-1.715c-0.684,0-1.211,0.479-1.415,1.043
			c-0.06,0.156-0.072,0.312-0.072,0.504v3.502h-1.056V-264.03z"/>
		<path d="M-478.701-258.464c0,2.146-1.499,3.082-2.89,3.082c-1.559,0-2.783-1.151-2.783-2.986c0-1.931,1.284-3.07,2.878-3.07
			C-479.828-261.439-478.701-260.228-478.701-258.464z M-483.294-258.405c0,1.271,0.72,2.231,1.751,2.231
			c1.007,0,1.763-0.948,1.763-2.255c0-0.983-0.492-2.219-1.739-2.219C-482.754-260.647-483.294-259.496-483.294-258.405z"/>
		<path d="M-477.366-259.748c0-0.612-0.012-1.092-0.048-1.571h0.936l0.06,0.959h0.024c0.288-0.539,0.959-1.079,1.919-1.079
			c0.803,0,2.051,0.479,2.051,2.471v3.454h-1.056v-3.346c0-0.936-0.348-1.716-1.343-1.716c-0.684,0-1.223,0.492-1.415,1.08
			c-0.048,0.132-0.072,0.312-0.072,0.491v3.49h-1.056V-259.748z"/>
		<path d="M-465.741-256.366c0,1.344-0.276,2.146-0.828,2.662c-0.576,0.517-1.391,0.696-2.123,0.696
			c-0.696,0-1.463-0.168-1.931-0.479l0.264-0.816c0.384,0.252,0.983,0.468,1.703,0.468c1.08,0,1.871-0.563,1.871-2.038v-0.636
			h-0.024c-0.312,0.539-0.948,0.971-1.847,0.971c-1.439,0-2.471-1.223-2.471-2.83c0-1.967,1.284-3.07,2.627-3.07
			c1.007,0,1.547,0.516,1.811,0.995h0.024l0.036-0.875h0.936c-0.036,0.407-0.048,0.888-0.048,1.583V-256.366z M-466.796-259.028
			c0-0.181-0.012-0.336-0.06-0.468c-0.192-0.624-0.696-1.128-1.476-1.128c-1.007,0-1.727,0.852-1.727,2.195
			c0,1.139,0.588,2.087,1.715,2.087c0.66,0,1.247-0.408,1.463-1.08c0.06-0.18,0.083-0.384,0.083-0.563V-259.028z"/>
		<path d="M-463.998-264.03h1.056v3.635h0.024c0.168-0.301,0.432-0.576,0.755-0.756c0.312-0.18,0.684-0.288,1.08-0.288
			c0.779,0,2.027,0.479,2.027,2.471v3.454h-1.056v-3.334c0-0.936-0.348-1.715-1.343-1.715c-0.684,0-1.211,0.479-1.415,1.043
			c-0.06,0.156-0.072,0.312-0.072,0.504v3.502h-1.056V-264.03z"/>
		<path d="M-453.261-256.906c0,0.504,0.024,0.996,0.084,1.392h-0.947l-0.084-0.731h-0.036c-0.324,0.456-0.947,0.863-1.775,0.863
			c-1.175,0-1.775-0.827-1.775-1.667c0-1.403,1.247-2.171,3.49-2.159v-0.119c0-0.468-0.132-1.344-1.319-1.332
			c-0.552,0-1.116,0.156-1.523,0.432l-0.24-0.707c0.479-0.3,1.187-0.504,1.919-0.504c1.775,0,2.207,1.211,2.207,2.362V-256.906z
			 M-454.28-258.476c-1.151-0.024-2.458,0.18-2.458,1.307c0,0.696,0.456,1.008,0.983,1.008c0.768,0,1.259-0.479,1.427-0.972
			c0.036-0.12,0.048-0.24,0.048-0.336V-258.476z"/>
		<path d="M-450.379-262.95c0,0.359-0.252,0.647-0.671,0.647c-0.384,0-0.636-0.288-0.636-0.647c0-0.36,0.264-0.66,0.66-0.66
			C-450.643-263.61-450.379-263.322-450.379-262.95z M-451.554-255.514v-5.805h1.056v5.805H-451.554z"/>
	</g>
	<g id="IDtype:numeric">
		<path d="M-554.045-248.598v8.084h-1.056v-8.084H-554.045z"/>
		<path d="M-552.22-248.478c0.636-0.107,1.391-0.18,2.219-0.18c1.499,0,2.566,0.359,3.274,1.008
			c0.732,0.659,1.151,1.595,1.151,2.902c0,1.319-0.419,2.398-1.163,3.142c-0.768,0.756-2.015,1.164-3.586,1.164
			c-0.756,0-1.367-0.036-1.895-0.097V-248.478z M-551.177-241.33c0.264,0.036,0.647,0.048,1.055,0.048
			c2.243,0,3.442-1.247,3.442-3.43c0.012-1.907-1.067-3.119-3.274-3.119c-0.54,0-0.947,0.049-1.223,0.108V-241.33z"/>
		<path d="M-542.789-247.71v1.392h1.511v0.804h-1.511v3.13c0,0.72,0.204,1.128,0.792,1.128c0.288,0,0.456-0.024,0.612-0.072
			l0.048,0.804c-0.204,0.071-0.528,0.144-0.936,0.144c-0.492,0-0.888-0.168-1.14-0.443c-0.288-0.324-0.408-0.84-0.408-1.523v-3.166
			h-0.899v-0.804h0.899v-1.079L-542.789-247.71z"/>
		<path d="M-539.597-246.319l1.259,3.43c0.144,0.384,0.288,0.84,0.384,1.188h0.024c0.108-0.348,0.228-0.791,0.372-1.211l1.151-3.406
			h1.115l-1.583,4.138c-0.756,1.991-1.271,2.998-1.991,3.634c-0.527,0.444-1.031,0.624-1.295,0.672l-0.264-0.876
			c0.264-0.084,0.612-0.252,0.924-0.516c0.288-0.228,0.635-0.636,0.887-1.175c0.048-0.108,0.084-0.192,0.084-0.252
			c0-0.061-0.024-0.145-0.084-0.276l-2.135-5.349H-539.597z"/>
		<path d="M-534.329-244.424c0-0.743-0.024-1.343-0.048-1.895h0.936l0.06,0.995h0.024c0.419-0.707,1.115-1.115,2.063-1.115
			c1.416,0,2.471,1.188,2.471,2.938c0,2.087-1.283,3.118-2.65,3.118c-0.768,0-1.439-0.336-1.787-0.911h-0.024v3.154h-1.043V-244.424
			z M-533.286-242.876c0,0.155,0.012,0.3,0.048,0.432c0.192,0.731,0.828,1.235,1.583,1.235c1.115,0,1.763-0.912,1.763-2.243
			c0-1.151-0.611-2.146-1.727-2.146c-0.72,0-1.403,0.504-1.595,1.295c-0.036,0.132-0.072,0.288-0.072,0.42V-242.876z"/>
		<path d="M-526.914-243.225c0.024,1.428,0.923,2.016,1.991,2.016c0.755,0,1.223-0.132,1.607-0.3l0.192,0.755
			c-0.372,0.168-1.019,0.372-1.943,0.372c-1.787,0-2.854-1.188-2.854-2.938s1.032-3.118,2.723-3.118
			c1.907,0,2.399,1.655,2.399,2.723c0,0.216-0.012,0.372-0.036,0.491H-526.914z M-523.819-243.98
			c0.012-0.66-0.276-1.703-1.463-1.703c-1.08,0-1.535,0.972-1.619,1.703H-523.819z"/>
		<path d="M-521.729-245.36c0-0.443,0.3-0.755,0.708-0.755c0.432,0,0.708,0.312,0.708,0.755c0,0.42-0.276,0.744-0.72,0.744
			C-521.441-244.616-521.729-244.94-521.729-245.36z M-521.729-241.125c0-0.444,0.3-0.756,0.708-0.756
			c0.432,0,0.708,0.312,0.708,0.756c0,0.42-0.276,0.743-0.72,0.743C-521.441-240.382-521.729-240.706-521.729-241.125z"/>
		<path d="M-511.374-244.748c0-0.612-0.012-1.092-0.048-1.571h0.936l0.06,0.959h0.024c0.288-0.539,0.959-1.079,1.919-1.079
			c0.803,0,2.051,0.479,2.051,2.471v3.454h-1.056v-3.346c0-0.936-0.348-1.716-1.343-1.716c-0.684,0-1.223,0.492-1.415,1.08
			c-0.048,0.132-0.072,0.312-0.072,0.491v3.49h-1.056V-244.748z"/>
		<path d="M-499.856-242.109c0,0.611,0.012,1.139,0.048,1.595h-0.936l-0.06-0.947h-0.024c-0.264,0.468-0.887,1.079-1.919,1.079
			c-0.911,0-2.003-0.516-2.003-2.543v-3.394h1.056v3.202c0,1.104,0.348,1.859,1.295,1.859c0.708,0,1.199-0.492,1.391-0.972
			c0.06-0.145,0.096-0.336,0.096-0.54v-3.55h1.056V-242.109z"/>
		<path d="M-498.102-244.748c0-0.612-0.024-1.092-0.048-1.571h0.923l0.048,0.947h0.036c0.324-0.552,0.864-1.067,1.835-1.067
			c0.78,0,1.379,0.479,1.631,1.163h0.024c0.18-0.336,0.419-0.575,0.66-0.755c0.348-0.265,0.719-0.408,1.271-0.408
			c0.78,0,1.919,0.504,1.919,2.519v3.406h-1.031v-3.274c0-1.127-0.42-1.787-1.259-1.787c-0.612,0-1.067,0.444-1.259,0.948
			c-0.048,0.155-0.084,0.335-0.084,0.527v3.586h-1.031v-3.479c0-0.923-0.408-1.583-1.211-1.583c-0.648,0-1.14,0.528-1.308,1.056
			c-0.06,0.144-0.084,0.336-0.084,0.516v3.49h-1.031V-244.748z"/>
		<path d="M-487.506-243.225c0.024,1.428,0.923,2.016,1.991,2.016c0.755,0,1.223-0.132,1.607-0.3l0.192,0.755
			c-0.372,0.168-1.019,0.372-1.943,0.372c-1.787,0-2.854-1.188-2.854-2.938s1.032-3.118,2.723-3.118
			c1.907,0,2.399,1.655,2.399,2.723c0,0.216-0.012,0.372-0.036,0.491H-487.506z M-484.412-243.98
			c0.012-0.66-0.276-1.703-1.463-1.703c-1.08,0-1.535,0.972-1.619,1.703H-484.412z"/>
		<path d="M-482.082-244.508c0-0.684-0.012-1.271-0.048-1.811h0.923l0.048,1.151h0.036c0.264-0.779,0.912-1.271,1.619-1.271
			c0.108,0,0.192,0.012,0.288,0.024v0.995c-0.108-0.024-0.216-0.024-0.359-0.024c-0.744,0-1.271,0.552-1.416,1.344
			c-0.024,0.144-0.036,0.324-0.036,0.491v3.095h-1.056V-244.508z"/>
		<path d="M-476.935-247.95c0,0.359-0.252,0.647-0.671,0.647c-0.384,0-0.636-0.288-0.636-0.647c0-0.36,0.264-0.66,0.66-0.66
			C-477.199-248.61-476.935-248.322-476.935-247.95z M-478.11-240.514v-5.805h1.056v5.805H-478.11z"/>
		<path d="M-471.165-240.718c-0.276,0.132-0.887,0.336-1.667,0.336c-1.751,0-2.891-1.188-2.891-2.962
			c0-1.787,1.224-3.095,3.119-3.095c0.624,0,1.175,0.156,1.463,0.312l-0.24,0.804c-0.252-0.132-0.647-0.275-1.223-0.275
			c-1.332,0-2.051,0.995-2.051,2.194c0,1.344,0.864,2.171,2.015,2.171c0.6,0,0.996-0.144,1.295-0.275L-471.165-240.718z"/>
	</g>
	<g id="IDlength:7">
		<path d="M-554.045-233.598v8.084h-1.056v-8.084H-554.045z"/>
		<path d="M-552.22-233.478c0.636-0.107,1.391-0.18,2.219-0.18c1.499,0,2.566,0.359,3.274,1.008
			c0.732,0.659,1.151,1.595,1.151,2.902c0,1.319-0.419,2.398-1.163,3.142c-0.768,0.756-2.015,1.164-3.586,1.164
			c-0.756,0-1.367-0.036-1.895-0.097V-233.478z M-551.177-226.33c0.264,0.036,0.647,0.048,1.055,0.048
			c2.243,0,3.442-1.247,3.442-3.43c0.012-1.907-1.067-3.119-3.274-3.119c-0.54,0-0.947,0.049-1.223,0.108V-226.33z"/>
		<path d="M-544.265-234.03h1.056v8.516h-1.056V-234.03z"/>
		<path d="M-540.845-228.225c0.024,1.428,0.923,2.016,1.991,2.016c0.755,0,1.223-0.132,1.607-0.3l0.192,0.755
			c-0.372,0.168-1.019,0.372-1.943,0.372c-1.787,0-2.854-1.188-2.854-2.938s1.032-3.118,2.723-3.118
			c1.907,0,2.399,1.655,2.399,2.723c0,0.216-0.012,0.372-0.036,0.491H-540.845z M-537.75-228.98c0.012-0.66-0.276-1.703-1.463-1.703
			c-1.079,0-1.535,0.972-1.619,1.703H-537.75z"/>
		<path d="M-535.421-229.748c0-0.612-0.012-1.092-0.048-1.571h0.936l0.06,0.959h0.024c0.288-0.539,0.959-1.079,1.919-1.079
			c0.803,0,2.051,0.479,2.051,2.471v3.454h-1.056v-3.346c0-0.936-0.348-1.716-1.343-1.716c-0.684,0-1.223,0.492-1.415,1.08
			c-0.048,0.132-0.072,0.312-0.072,0.491v3.49h-1.056V-229.748z"/>
		<path d="M-523.796-226.366c0,1.344-0.276,2.146-0.828,2.662c-0.576,0.517-1.391,0.696-2.123,0.696
			c-0.696,0-1.463-0.168-1.931-0.479l0.264-0.816c0.384,0.252,0.984,0.468,1.703,0.468c1.08,0,1.871-0.563,1.871-2.038v-0.636
			h-0.024c-0.312,0.539-0.948,0.971-1.847,0.971c-1.439,0-2.471-1.223-2.471-2.83c0-1.967,1.284-3.07,2.627-3.07
			c1.007,0,1.547,0.516,1.811,0.995h0.024l0.036-0.875h0.936c-0.036,0.407-0.048,0.888-0.048,1.583V-226.366z M-524.852-229.028
			c0-0.181-0.012-0.336-0.06-0.468c-0.192-0.624-0.696-1.128-1.476-1.128c-1.007,0-1.727,0.852-1.727,2.195
			c0,1.139,0.588,2.087,1.715,2.087c0.66,0,1.247-0.408,1.463-1.08c0.06-0.18,0.084-0.384,0.084-0.563V-229.028z"/>
		<path d="M-520.782-232.71v1.392h1.511v0.804h-1.511v3.13c0,0.72,0.204,1.128,0.792,1.128c0.288,0,0.456-0.024,0.611-0.072
			l0.048,0.804c-0.204,0.071-0.528,0.144-0.936,0.144c-0.492,0-0.888-0.168-1.14-0.443c-0.288-0.324-0.408-0.84-0.408-1.523v-3.166
			h-0.899v-0.804h0.899v-1.079L-520.782-232.71z"/>
		<path d="M-518.081-234.03h1.056v3.635h0.024c0.168-0.301,0.432-0.576,0.755-0.756c0.312-0.18,0.684-0.288,1.08-0.288
			c0.779,0,2.027,0.479,2.027,2.471v3.454h-1.056v-3.334c0-0.936-0.348-1.715-1.343-1.715c-0.684,0-1.211,0.479-1.415,1.043
			c-0.06,0.156-0.072,0.312-0.072,0.504v3.502h-1.056V-234.03z"/>
		<path d="M-511.661-230.36c0-0.443,0.3-0.755,0.708-0.755c0.432,0,0.708,0.312,0.708,0.755c0,0.42-0.276,0.744-0.72,0.744
			C-511.374-229.616-511.661-229.94-511.661-230.36z M-511.661-226.125c0-0.444,0.3-0.756,0.708-0.756
			c0.432,0,0.708,0.312,0.708,0.756c0,0.42-0.276,0.743-0.72,0.743C-511.374-225.382-511.661-225.706-511.661-226.125z"/>
		<path d="M-496.58-233.31v0.696l-3.395,7.1h-1.091l3.382-6.896v-0.023h-3.814v-0.876H-496.58z"/>
	</g>
	<g id="MaxID:100">
		<path d="M-548.276-214.064c-0.06-1.128-0.132-2.495-0.132-3.49h-0.024c-0.288,0.936-0.612,1.955-1.02,3.07l-1.427,3.922h-0.792
			l-1.319-3.85c-0.384-1.151-0.695-2.184-0.923-3.143h-0.024c-0.024,1.008-0.084,2.351-0.156,3.574l-0.216,3.466h-0.995l0.563-8.084
			h1.332l1.379,3.91c0.336,0.995,0.6,1.883,0.815,2.723h0.024c0.216-0.815,0.503-1.703,0.863-2.723l1.439-3.91h1.331l0.504,8.084
			h-1.032L-548.276-214.064z"/>
		<path d="M-541.327-211.906c0,0.504,0.024,0.996,0.084,1.392h-0.947l-0.084-0.731h-0.036c-0.324,0.456-0.947,0.863-1.775,0.863
			c-1.175,0-1.775-0.827-1.775-1.667c0-1.403,1.247-2.171,3.49-2.159v-0.119c0-0.468-0.132-1.344-1.319-1.332
			c-0.552,0-1.116,0.156-1.523,0.432l-0.24-0.707c0.479-0.3,1.187-0.504,1.919-0.504c1.775,0,2.207,1.211,2.207,2.362V-211.906z
			 M-542.347-213.476c-1.151-0.024-2.458,0.18-2.458,1.307c0,0.696,0.456,1.008,0.983,1.008c0.768,0,1.259-0.479,1.427-0.972
			c0.036-0.12,0.048-0.24,0.048-0.336V-213.476z"/>
		<path d="M-539.129-216.319l0.828,1.247c0.228,0.324,0.408,0.611,0.6,0.936h0.024c0.192-0.336,0.384-0.636,0.588-0.947l0.803-1.235
			h1.151l-1.979,2.807l2.027,2.998h-1.188l-0.863-1.308c-0.228-0.336-0.42-0.659-0.624-1.007h-0.024
			c-0.192,0.348-0.384,0.659-0.612,1.007l-0.839,1.308h-1.164l2.063-2.962l-1.967-2.843H-539.129z"/>
		<path d="M-532.985-218.598v8.084h-1.056v-8.084H-532.985z"/>
		<path d="M-531.161-218.478c0.636-0.107,1.391-0.18,2.219-0.18c1.499,0,2.566,0.359,3.274,1.008
			c0.732,0.659,1.151,1.595,1.151,2.902c0,1.319-0.419,2.398-1.163,3.142c-0.768,0.756-2.015,1.164-3.586,1.164
			c-0.756,0-1.367-0.036-1.895-0.097V-218.478z M-530.117-211.33c0.264,0.036,0.647,0.048,1.055,0.048
			c2.243,0,3.442-1.247,3.442-3.43c0.012-1.907-1.067-3.119-3.274-3.119c-0.54,0-0.947,0.049-1.223,0.108V-211.33z"/>
		<path d="M-523.445-215.36c0-0.443,0.3-0.755,0.708-0.755c0.432,0,0.708,0.312,0.708,0.755c0,0.42-0.276,0.744-0.72,0.744
			C-523.157-214.616-523.445-214.94-523.445-215.36z M-523.445-211.125c0-0.444,0.3-0.756,0.708-0.756
			c0.432,0,0.708,0.312,0.708,0.756c0,0.42-0.276,0.743-0.72,0.743C-523.157-210.382-523.445-210.706-523.445-211.125z"/>
		<path d="M-511.134-217.327h-0.024l-1.355,0.731l-0.204-0.803l1.703-0.912h0.9v7.796h-1.02V-217.327z"/>
		<path d="M-502.076-214.496c0,2.65-0.996,4.113-2.71,4.113c-1.523,0-2.567-1.427-2.591-4.006c0-2.626,1.14-4.054,2.723-4.054
			C-503.024-218.442-502.076-216.979-502.076-214.496z M-506.31-214.376c0,2.027,0.624,3.179,1.583,3.179
			c1.067,0,1.583-1.26,1.583-3.25c0-1.919-0.48-3.179-1.583-3.179C-505.638-217.626-506.31-216.499-506.31-214.376z"/>
		<path d="M-495.92-214.496c0,2.65-0.996,4.113-2.71,4.113c-1.523,0-2.567-1.427-2.591-4.006c0-2.626,1.14-4.054,2.723-4.054
			C-496.868-218.442-495.92-216.979-495.92-214.496z M-500.154-214.376c0,2.027,0.624,3.179,1.583,3.179
			c1.067,0,1.583-1.26,1.583-3.25c0-1.919-0.48-3.179-1.583-3.179C-499.482-217.626-500.154-216.499-500.154-214.376z"/>
	</g>
	<g id="Elements:31">
		<path d="M-550.915-199.304h-3.13v2.914h3.502v0.876h-4.558v-8.084h4.378v0.876h-3.322v2.555h3.13V-199.304z"/>
		<path d="M-549.221-204.03h1.056v8.516h-1.056V-204.03z"/>
		<path d="M-545.801-198.225c0.024,1.428,0.923,2.016,1.991,2.016c0.755,0,1.223-0.132,1.607-0.3l0.192,0.755
			c-0.372,0.168-1.019,0.372-1.943,0.372c-1.787,0-2.854-1.188-2.854-2.938s1.032-3.118,2.723-3.118
			c1.907,0,2.399,1.655,2.399,2.723c0,0.216-0.012,0.372-0.036,0.491H-545.801z M-542.707-198.98
			c0.012-0.66-0.276-1.703-1.463-1.703c-1.079,0-1.535,0.972-1.619,1.703H-542.707z"/>
		<path d="M-540.377-199.748c0-0.612-0.024-1.092-0.048-1.571h0.923l0.048,0.947h0.036c0.324-0.552,0.864-1.067,1.835-1.067
			c0.78,0,1.379,0.479,1.631,1.163h0.024c0.18-0.336,0.419-0.575,0.66-0.755c0.348-0.265,0.719-0.408,1.271-0.408
			c0.78,0,1.919,0.504,1.919,2.519v3.406h-1.031v-3.274c0-1.127-0.42-1.787-1.259-1.787c-0.612,0-1.067,0.444-1.259,0.948
			c-0.048,0.155-0.084,0.335-0.084,0.527v3.586h-1.032v-3.479c0-0.923-0.408-1.583-1.211-1.583c-0.648,0-1.14,0.528-1.308,1.056
			c-0.06,0.144-0.084,0.336-0.084,0.516v3.49h-1.031V-199.748z"/>
		<path d="M-529.781-198.225c0.024,1.428,0.923,2.016,1.991,2.016c0.755,0,1.223-0.132,1.607-0.3l0.192,0.755
			c-0.372,0.168-1.019,0.372-1.943,0.372c-1.787,0-2.854-1.188-2.854-2.938s1.032-3.118,2.723-3.118
			c1.907,0,2.399,1.655,2.399,2.723c0,0.216-0.012,0.372-0.036,0.491H-529.781z M-526.687-198.98
			c0.012-0.66-0.276-1.703-1.463-1.703c-1.08,0-1.535,0.972-1.619,1.703H-526.687z"/>
		<path d="M-524.357-199.748c0-0.612-0.012-1.092-0.048-1.571h0.936l0.06,0.959h0.024c0.288-0.539,0.959-1.079,1.919-1.079
			c0.803,0,2.051,0.479,2.051,2.471v3.454h-1.056v-3.346c0-0.936-0.348-1.716-1.343-1.716c-0.684,0-1.223,0.492-1.415,1.08
			c-0.048,0.132-0.072,0.312-0.072,0.491v3.49h-1.056V-199.748z"/>
		<path d="M-516.474-202.71v1.392h1.511v0.804h-1.511v3.13c0,0.72,0.204,1.128,0.792,1.128c0.288,0,0.456-0.024,0.612-0.072
			l0.048,0.804c-0.204,0.071-0.528,0.144-0.936,0.144c-0.492,0-0.888-0.168-1.14-0.443c-0.288-0.324-0.408-0.84-0.408-1.523v-3.166
			h-0.899v-0.804h0.899v-1.079L-516.474-202.71z"/>
		<path d="M-513.917-196.582c0.324,0.191,0.875,0.408,1.403,0.408c0.756,0,1.115-0.372,1.115-0.864c0-0.504-0.3-0.768-1.067-1.055
			c-1.055-0.384-1.547-0.948-1.547-1.644c0-0.936,0.768-1.703,2.003-1.703c0.587,0,1.104,0.156,1.415,0.36l-0.252,0.768
			c-0.228-0.145-0.647-0.349-1.187-0.349c-0.624,0-0.959,0.36-0.959,0.792c0,0.479,0.335,0.695,1.091,0.995
			c0.996,0.372,1.523,0.876,1.523,1.739c0,1.031-0.803,1.751-2.159,1.751c-0.636,0-1.223-0.168-1.631-0.407L-513.917-196.582z"/>
		<path d="M-506.477-199.508c0-0.684-0.012-1.271-0.048-1.811h0.923l0.048,1.151h0.036c0.264-0.779,0.912-1.271,1.619-1.271
			c0.108,0,0.192,0.012,0.288,0.024v0.995c-0.108-0.024-0.216-0.024-0.36-0.024c-0.744,0-1.271,0.552-1.416,1.344
			c-0.024,0.144-0.036,0.324-0.036,0.491v3.095h-1.056V-199.508z"/>
		<path d="M-502.085-198.225c0.024,1.428,0.923,2.016,1.991,2.016c0.755,0,1.223-0.132,1.607-0.3l0.192,0.755
			c-0.372,0.168-1.019,0.372-1.943,0.372c-1.787,0-2.854-1.188-2.854-2.938s1.032-3.118,2.723-3.118
			c1.907,0,2.399,1.655,2.399,2.723c0,0.216-0.012,0.372-0.036,0.491H-502.085z M-498.991-198.98
			c0.012-0.66-0.276-1.703-1.463-1.703c-1.08,0-1.535,0.972-1.619,1.703H-498.991z"/>
		<path d="M-492.703-196.402h-0.024c-0.324,0.563-0.959,1.02-1.895,1.02c-1.355,0-2.459-1.163-2.459-2.927
			c0-2.183,1.403-3.13,2.627-3.13c0.899,0,1.499,0.443,1.787,0.995h0.024l0.036-0.875h0.996c-0.024,0.479-0.048,0.995-0.048,1.595
			v6.585h-1.043V-196.402z M-492.703-198.968c0-0.144-0.012-0.3-0.048-0.432c-0.167-0.647-0.719-1.199-1.511-1.199
			c-1.092,0-1.751,0.923-1.751,2.219c0,1.163,0.552,2.158,1.715,2.158c0.684,0,1.271-0.419,1.511-1.139
			c0.048-0.156,0.084-0.36,0.084-0.516V-198.968z"/>
		<path d="M-485.048-197.109c0,0.611,0.012,1.139,0.048,1.595h-0.936l-0.06-0.947h-0.024c-0.264,0.468-0.887,1.079-1.919,1.079
			c-0.911,0-2.003-0.516-2.003-2.543v-3.394h1.056v3.202c0,1.104,0.348,1.859,1.295,1.859c0.708,0,1.199-0.492,1.391-0.972
			c0.06-0.145,0.096-0.336,0.096-0.54v-3.55h1.056V-197.109z"/>
		<path d="M-482.118-202.95c0,0.359-0.252,0.647-0.671,0.647c-0.384,0-0.636-0.288-0.636-0.647c0-0.36,0.264-0.66,0.66-0.66
			C-482.382-203.61-482.118-203.322-482.118-202.95z M-483.293-195.514v-5.805h1.056v5.805H-483.293z"/>
		<path d="M-480.486-199.508c0-0.684-0.012-1.271-0.048-1.811h0.923l0.048,1.151h0.036c0.264-0.779,0.912-1.271,1.619-1.271
			c0.108,0,0.192,0.012,0.288,0.024v0.995c-0.108-0.024-0.216-0.024-0.36-0.024c-0.744,0-1.271,0.552-1.416,1.344
			c-0.024,0.144-0.036,0.324-0.036,0.491v3.095h-1.056V-199.508z"/>
		<path d="M-476.094-198.225c0.024,1.428,0.923,2.016,1.991,2.016c0.755,0,1.223-0.132,1.607-0.3l0.192,0.755
			c-0.372,0.168-1.019,0.372-1.943,0.372c-1.787,0-2.854-1.188-2.854-2.938s1.032-3.118,2.723-3.118
			c1.907,0,2.399,1.655,2.399,2.723c0,0.216-0.012,0.372-0.036,0.491H-476.094z M-473-198.98c0.012-0.66-0.276-1.703-1.463-1.703
			c-1.079,0-1.535,0.972-1.619,1.703H-473z"/>
		<path d="M-465.668-204.03v7.017c0,0.516,0.024,1.104,0.048,1.499h-0.936l-0.048-1.008h-0.036c-0.312,0.648-1.007,1.14-1.955,1.14
			c-1.403,0-2.495-1.188-2.495-2.95c-0.012-1.931,1.2-3.106,2.603-3.106c0.9,0,1.487,0.42,1.751,0.876h0.024v-3.467H-465.668z
			 M-466.711-198.957c0-0.132-0.012-0.312-0.048-0.443c-0.156-0.66-0.731-1.212-1.523-1.212c-1.091,0-1.739,0.96-1.739,2.231
			c0,1.175,0.588,2.146,1.715,2.146c0.708,0,1.355-0.479,1.547-1.259c0.036-0.145,0.048-0.288,0.048-0.456V-198.957z"/>
		<path d="M-464.142-200.36c0-0.443,0.3-0.755,0.708-0.755c0.432,0,0.708,0.312,0.708,0.755c0,0.42-0.276,0.744-0.72,0.744
			C-463.854-199.616-464.142-199.94-464.142-200.36z M-464.142-196.125c0-0.444,0.3-0.756,0.708-0.756
			c0.432,0,0.708,0.312,0.708,0.756c0,0.42-0.276,0.743-0.72,0.743C-463.854-195.382-464.142-195.706-464.142-196.125z"/>
		<path d="M-453.87-196.713c0.3,0.18,0.983,0.479,1.727,0.479c1.343,0,1.775-0.852,1.763-1.511c-0.012-1.092-0.996-1.56-2.015-1.56
			h-0.587v-0.791h0.587c0.768,0,1.739-0.396,1.739-1.319c0-0.624-0.396-1.176-1.367-1.176c-0.624,0-1.224,0.276-1.559,0.516
			l-0.288-0.768c0.42-0.3,1.211-0.6,2.051-0.6c1.535,0,2.231,0.911,2.231,1.859c0,0.815-0.492,1.499-1.439,1.847v0.024
			c0.959,0.18,1.727,0.899,1.739,1.99c0,1.248-0.983,2.339-2.842,2.339c-0.875,0-1.643-0.275-2.027-0.527L-453.87-196.713z"/>
		<path d="M-445.675-202.327h-0.024l-1.355,0.731l-0.204-0.803l1.703-0.912h0.9v7.796h-1.02V-202.327z"/>
	</g>
	<g>
	</g>
	<g>
	</g>
	<g>
	</g>
	<g>
	</g>
	<g>
	</g>
	<g>
	</g>
</g>
</svg>
